<svg xmlns="http://www.w3.org/2000/svg" viewBox="0 0 1000 1100"><path d="M785.354,678.835L779.496,694.566L780.228,701.816L788.374,706.495L788.74,709.811L785.262,717.557L785.994,721.466L785.171,727.597L789.609,735.653L794.872,748.375L799.494,751.195L801.554,756.994L801.05,769.894L802.606,781.318L803.11,801.735L805.352,808.179L801.554,817.581L796.611,826.746L788.511,834.955L776.887,840.015L762.564,846.484L748.24,860.837L743.343,863.291L734.465,872.86L729.203,875.967L728.15,885.615L734.191,895.931L736.662,903.935L736.845,908.042L739.087,907.369L738.721,920.86L736.662,927.303L739.637,929.675L737.76,935.441L732.452,940.422L721.972,945.133L706.687,952.735L701.104,957.957L702.203,963.891L705.452,964.85L704.354,972.325L701.15,982.718L699.686,994.67L696.391,1001.209L687.696,1008.54L685.225,1010.662L679.825,1018.09L676.301,1025.63L669.07,1036.249L654.701,1051.642L645.731,1060.696L636.121,1067.597L622.85,1073.5L616.398,1074.301L614.75,1078.548L607.016,1076.267L600.701,1079.196L586.926,1076.241L579.238,1078.107L573.975,1077.303L560.887,1083.355L549.996,1085.804L542.17,1091.633L536.358,1092L531.004,1086.508L526.703,1086.221L521.211,1079.352L520.616,1081.482L518.923,1077.355L519.014,1068.42L514.896,1058.267L518.969,1055.511L518.648,1044.013L510.319,1030.103L503.958,1017.618L503.913,1017.593L494.806,998.659L485.333,987.77L480.391,977.296L477.553,963.459L474.442,953.235L470.186,931.696L469.865,915.14L468.264,907.647L463.321,902.012L456.731,890.721L450.05,874.481L447.304,866.021L436.962,852.925L436.184,842.695L434.994,834.326L436.733,822.696L441.126,810.626L441.813,804.977L445.931,793.181L448.952,787.807L456.228,779.29L460.347,773.5L461.674,763.877L460.987,756.534L457.189,751.916L453.803,744.093L450.691,736.35L451.377,733.692L455.267,728.576L451.423,716.189L448.814,707.6L442.453,699.499L443.643,697.011L441.858,693.052L438.472,683.456L428.038,669.946L414.996,657.099L406.575,646.589L398.841,633.459L399.253,629.241L402.045,625.175L405.111,615.923L407.674,606.499L405.294,604.562L409.687,590.29L411.518,580.253L406.575,571.826L400.764,569.669L398.201,563.953L394.906,562.119L395.089,558.6L381.863,563.198L377.058,562.529L372.162,565.377L362.002,565.097L355.184,557.11L351.019,547.885L342.004,539.47L332.44,539.621L321.228,539.6L310.748,541.093L300.497,543.819L280.545,551.3L273.497,555.685L262.057,559.378L250.707,555.75L244.941,555.901L236.063,553.395L227.918,553.547L212.862,555.772L204.029,559.442L191.445,564.126L188.974,563.802L185.633,563.91L172.545,557.823L161.013,548.122L150.167,541.115L141.609,532.865L138.177,531.911L129.024,526.752L122.435,519.894L120.192,515.201L118.636,505.693L113.053,498.087L108.111,493.023L104.862,491.363L101.704,488.784L100.24,483.074L98.363,480.227L94.702,478.101L87.884,472.682L82.529,471.826L79.646,468.179L79.692,466.2L75.848,463.45L75.024,460.654L72.919,450.66L74.567,444.866L69.304,434.667L62.989,429.999L68.572,427.506L74.704,418.25L77.724,411.45L76.626,404.318L80.196,397.773L81.751,385.198L80.379,371.963L78.823,365.259L80.104,358.511L76.809,352.064L70.128,346.195L70.677,340.449L71.272,334.106L76.123,330.369L80.287,323.201L79.463,318.531L83.857,308.757L90.95,299.899L95.206,297.654L98.592,289.5L98.867,281.999L103.443,273.266L111.909,268.076L120.009,253.498L120.238,253.304L126.599,247.78L138.451,246.195L148.428,236.305L154.835,232.419L165.451,220.23L162.248,201.866L167.099,189.032L168.792,181.09L176.984,170.865L189.706,163.901L199.133,157.576L207.645,141.573L211.626,132.012L221.007,132.065L228.65,138.702L240.731,137.62L253.911,141.073L259.448,141.231L271.667,132.701L285.396,129.995L293.404,123.498L305.669,118.684L327.223,115.866L348.228,114.576L354.635,116.913L366.624,110.67L380.216,110.535L385.387,114.226L394.082,113.284L407.902,106.833L416.826,108.753L416.414,116.806L427.214,110.967L428.13,114.011L421.769,121.789L421.677,129.065L426.07,132.966L424.423,146.432L416.048,154.193L418.474,162.556L425.018,162.815L428.221,170.067L433.072,172.433L447.991,177.665L453.345,176.359L463.962,178.867L480.803,185.601L486.752,198.92L498.192,201.79L516.086,208.013L529.631,215.331L535.855,211.514L541.942,204.704L538.967,193.315L542.948,186.008L552.101,178.944L560.887,176.897L578.048,179.992L582.396,186.72L587.155,186.771L591.182,189.336L603.813,191.111L606.925,196.044L623.811,195.792L636.076,199.726L648.66,204.127L654.564,206.435L664.357,201.715L669.574,197.458L680.786,196.221L689.847,198.114L693.279,205.482L696.254,200.633L706.413,204.152L716.343,204.98L722.613,201.237L729.706,222.76L730.942,226.547L727.372,232.419L724.626,243.362L721.194,250.873L718.22,253.376L713.964,248.73L708.243,242.31L699.182,221.446L697.855,222.76L703.118,238.146L710.943,252.648L720.554,274.848L725.221,282.524L729.34,290.474L740.735,305.935L738.218,308.358L738.63,317.362L753.411,329.719L755.654,332.529L759.772,345.942L756.981,348.407L758.811,362.357L763.479,378.443L768.33,381.732L775.286,386.692L782.654,402.116L786.177,414.271L793.133,420.707L810.477,433.134L817.525,440.591L824.435,448.14L828.416,452.626L834.64,456.554L837.66,460.588L837.249,465.98L830.018,469.102L835.464,472.638L839.628,475.031L842.099,480.402L847.82,485.809L854.135,485.853L866.125,482.548L879.945,481.015L891.157,476.983L897.472,476.127L902.003,473.758L909.233,473.319L913.306,473.056L919.164,471.123L925.891,469.827L931.932,465.387L936.737,465.343L937.011,468.926L935.867,476.478L935.913,483.271L933.213,487.953L929.643,501.902L923.511,516.244L915.64,532.627L904.749,551.364L893.903,565.636L878.938,583.011L866.216,593.326L847.225,605.939L835.372,615.622L821.46,631.006L818.532,637.72L815.648,640.733L806.725,645.814L803.613,651.111L798.854,652.058L797.023,661.02L792.95,666.151L790.479,674.627ZM916.784,779.114L920.171,784.65L923.328,793.269L925.388,809.046L928.682,815.194L927.401,821.534L925.159,825.425L920.857,817.67L918.432,821.578L920.857,831.386L919.759,837L916.235,840.083L915.411,851.364L910.423,867L904.154,885.615L896.282,911.506L891.432,930.709L885.711,946.888L875.369,950.213L864.249,956.167L856.926,952.568L846.859,947.552L843.335,940.162L842.511,927.819L838.026,916.796L836.837,906.904L839.125,897.04L844.982,894.685L845.028,890.145L851.115,879.881L852.259,871.262L849.284,864.883L846.904,856.436L845.852,844.138L850.291,836.686L852.03,828.269L858.345,827.777L865.438,825.067L870.152,822.674L875.735,822.517L882.965,814.993L893.445,806.889L897.243,800.293L895.504,794.686L900.904,796.258L907.906,787.189L908.181,779.335L912.391,773.522Z"/></svg>
